<svg width="49" height="48" viewBox="0 0 49 48" fill="none" xmlns="http://www.w3.org/2000/svg">
<path opacity="0.4" d="M20.7554 35.96C29.5809 35.96 36.7354 28.8055 36.7354 19.98C36.7354 11.1545 29.5809 4 20.7554 4C11.9299 4 4.77539 11.1545 4.77539 19.98C4.77539 28.8055 11.9299 35.96 20.7554 35.96Z" fill="#EC4747"/>
<path d="M44.6999 31.9802C44.6999 38.5802 39.3399 43.9402 32.7399 43.9402C28.6599 43.9402 25.0799 41.9002 22.9199 38.8002C31.6399 37.8202 38.5799 30.8802 39.5599 22.1602C42.6599 24.3202 44.6999 27.9002 44.6999 31.9802Z" fill="#EC4747"/>
<path d="M23.6754 19.4203L18.8754 17.7403C18.3954 17.5803 18.2954 17.5403 18.2954 16.8403C18.2954 16.3203 18.6554 15.9003 19.1154 15.9003H22.1154C22.7554 15.9003 23.2754 16.4803 23.2754 17.2003C23.2754 18.0203 23.9554 18.7003 24.7754 18.7003C25.5954 18.7003 26.2754 18.0203 26.2754 17.2003C26.2754 14.9003 24.4954 13.0203 22.2754 12.9203V12.8203C22.2754 12.0003 21.5954 11.3203 20.7754 11.3203C19.9554 11.3203 19.2754 11.9803 19.2754 12.8203V12.9203H19.0954C16.9954 12.9203 15.2754 14.6803 15.2754 16.8603C15.2754 18.7603 16.1154 19.9803 17.8554 20.5803L22.6754 22.2603C23.1554 22.4203 23.2554 22.4603 23.2554 23.1603C23.2554 23.6803 22.8954 24.1003 22.4354 24.1003H19.4354C18.7954 24.1003 18.2754 23.5203 18.2754 22.8003C18.2754 21.9803 17.5954 21.3003 16.7754 21.3003C15.9554 21.3003 15.2754 21.9803 15.2754 22.8003C15.2754 25.1003 17.0554 26.9803 19.2754 27.0803V27.2003C19.2754 28.0203 19.9554 28.7003 20.7754 28.7003C21.5954 28.7003 22.2754 28.0203 22.2754 27.2003V27.1003H22.4554C24.5554 27.1003 26.2754 25.3403 26.2754 23.1603C26.2754 21.2603 25.4154 20.0403 23.6754 19.4203Z" fill="#EC4747"/>
</svg>
