<svg width="49" height="48" viewBox="0 0 49 48" fill="none" xmlns="http://www.w3.org/2000/svg">
<path opacity="0.4" d="M35.2847 15.54C35.1447 15.52 35.0047 15.52 34.8647 15.54C31.7647 15.44 29.3047 12.9 29.3047 9.78C29.3047 6.6 31.8847 4 35.0847 4C38.2647 4 40.8647 6.58 40.8647 9.78C40.8447 12.9 38.3847 15.44 35.2847 15.54Z" fill="#57BF57"/>
<path opacity="0.4" d="M41.8077 29.3998C39.5677 30.8998 36.4277 31.4598 33.5277 31.0798C34.2877 29.4398 34.6877 27.6198 34.7077 25.6998C34.7077 23.6998 34.2677 21.7998 33.4277 20.1398C36.3877 19.7398 39.5277 20.2998 41.7877 21.7998C44.9477 23.8798 44.9477 27.2998 41.8077 29.3998Z" fill="#57BF57"/>
<path opacity="0.4" d="M13.1093 15.54C13.2493 15.52 13.3893 15.52 13.5293 15.54C16.6293 15.44 19.0893 12.9 19.0893 9.78C19.0893 6.6 16.5093 4 13.3093 4C10.1293 4 7.5293 6.58 7.5293 9.78C7.5493 12.9 10.0093 15.44 13.1093 15.54Z" fill="#57BF57"/>
<path opacity="0.4" d="M13.3366 25.7002C13.3366 27.6402 13.7566 29.4802 14.5166 31.1402C11.6966 31.4402 8.75656 30.8402 6.59656 29.4202C3.43656 27.3202 3.43656 23.9002 6.59656 21.8002C8.73656 20.3602 11.7566 19.7802 14.5966 20.1002C13.7766 21.7802 13.3366 23.6802 13.3366 25.7002Z" fill="#57BF57"/>
<path d="M24.4603 31.74C24.3003 31.72 24.1203 31.72 23.9403 31.74C20.2603 31.62 17.3203 28.6 17.3203 24.88C17.3203 21.08 20.3803 18 24.2003 18C28.0003 18 31.0803 21.08 31.0803 24.88C31.0803 28.6 28.1603 31.62 24.4603 31.74Z" fill="#57BF57"/>
<path d="M17.9662 35.8803C14.9462 37.9003 14.9462 41.2203 17.9662 43.2203C21.4062 45.5203 27.0462 45.5203 30.4862 43.2203C33.5062 41.2003 33.5062 37.8803 30.4862 35.8803C27.0662 33.5803 21.4262 33.5803 17.9662 35.8803Z" fill="#57BF57"/>
</svg>
