<svg width="30" height="30" viewBox="0 0 30 30" fill="none" xmlns="http://www.w3.org/2000/svg">
<path d="M0 8C0 3.58172 3.58172 0 8 0H22C26.4183 0 30 3.58172 30 8V22C30 26.4183 26.4183 30 22 30H8C3.58172 30 0 26.4183 0 22V8Z" fill="#57BF57" fill-opacity="0.1"/>
<rect width="18" height="18" transform="translate(6 6)" fill="white" fill-opacity="0.01" style="mix-blend-mode:multiply"/>
<path d="M12.75 8.25C13.3063 8.25 13.85 8.41495 14.3125 8.72399C14.7751 9.03303 15.1355 9.47229 15.3484 9.9862C15.5613 10.5001 15.617 11.0656 15.5085 11.6112C15.3999 12.1568 15.1321 12.6579 14.7387 13.0512C14.3454 13.4446 13.8443 13.7124 13.2987 13.821C12.7531 13.9295 12.1876 13.8738 11.6737 13.6609C11.1598 13.448 10.7205 13.0876 10.4115 12.625C10.1025 12.1625 9.9375 11.6188 9.9375 11.0625C9.9375 10.3166 10.2338 9.60121 10.7613 9.07376C11.2887 8.54632 12.0041 8.25 12.75 8.25ZM12.75 7.125C11.9712 7.125 11.21 7.35593 10.5624 7.78859C9.91492 8.22125 9.41024 8.8362 9.11222 9.55568C8.8142 10.2752 8.73623 11.0669 8.88816 11.8307C9.04009 12.5945 9.4151 13.2961 9.96577 13.8467C10.5164 14.3974 11.218 14.7724 11.9818 14.9243C12.7456 15.0763 13.5373 14.9983 14.2568 14.7003C14.9763 14.4023 15.5913 13.8976 16.0239 13.2501C16.4566 12.6025 16.6875 11.8413 16.6875 11.0625C16.6875 10.0182 16.2727 9.01669 15.5342 8.27827C14.7958 7.53984 13.7943 7.125 12.75 7.125Z" fill="#57BF57"/>
<path d="M18.375 22.875H17.25V20.0625C17.25 19.3166 16.9537 18.6012 16.4262 18.0738C15.8988 17.5463 15.1834 17.25 14.4375 17.25H11.0625C10.3166 17.25 9.60121 17.5463 9.07376 18.0738C8.54632 18.6012 8.25 19.3166 8.25 20.0625V22.875H7.125V20.0625C7.125 19.0182 7.53984 18.0167 8.27827 17.2783C9.01669 16.5398 10.0182 16.125 11.0625 16.125H14.4375C15.4818 16.125 16.4833 16.5398 17.2217 17.2783C17.9602 18.0167 18.375 19.0182 18.375 20.0625V22.875Z" fill="#57BF57"/>
<path d="M20.0625 15.1013L18.6056 13.6444L17.8125 14.4375L20.0625 16.6875L24 12.75L23.2069 11.9569L20.0625 15.1013Z" fill="#57BF57"/>
</svg>
