<svg width="34" height="35" viewBox="0 0 34 35" fill="none" xmlns="http://www.w3.org/2000/svg">
<path d="M34 17.5007C34 26.0893 27.6355 33.1897 19.3675 34.3419C18.5944 34.4491 17.8035 34.5051 17.0006 34.5051C16.0739 34.5051 15.1638 34.4313 14.2775 34.2883C6.18225 32.9847 0 25.9642 0 17.5007C0 8.10903 7.61167 0.495117 16.9994 0.495117C26.3871 0.495117 34 8.10903 34 17.5007Z" fill="#1877F2"/>
<path d="M19.3672 14.1488V17.8533H23.9485L23.2231 22.8434H19.3672V34.3405C18.5941 34.4478 17.8032 34.5038 17.0003 34.5038C16.0736 34.5038 15.1635 34.4299 14.2773 34.2869V22.8434H10.0521V17.8533H14.2773V13.3207C14.2773 10.5086 16.556 8.22803 19.3684 8.22803V8.23041C19.3767 8.23041 19.3839 8.22803 19.3922 8.22803H23.9497V12.5438H20.9717C20.0867 12.5438 19.3684 13.2623 19.3684 14.1476L19.3672 14.1488Z" fill="white"/>
</svg>
