<svg width="34" height="35" viewBox="0 0 34 35" fill="none" xmlns="http://www.w3.org/2000/svg">
<path d="M34 17.8906C34 16.7351 33.9044 15.5733 33.7005 14.4365H17.3428V20.9825H26.7101C26.3214 23.0937 25.0724 24.9612 23.2435 26.148V30.3954H28.832C32.1138 27.4347 34 23.0624 34 17.8906Z" fill="#4285F4"/>
<path d="M17.3382 34.4993C22.0155 34.4993 25.96 32.994 28.8339 30.3956L23.2454 26.1482C21.6905 27.1851 19.6833 27.7722 17.3446 27.7722C12.8203 27.7722 8.98416 24.7803 7.60775 20.7578H1.84082V25.1363C4.78482 30.8765 10.7812 34.4993 17.3382 34.4993Z" fill="#34A853"/>
<path d="M7.60533 20.7571C6.87889 18.6459 6.87889 16.3598 7.60533 14.2487V9.87012H1.84478C-0.614926 14.6734 -0.614926 20.3324 1.84478 25.1356L7.60533 20.7571Z" fill="#FBBC04"/>
<path d="M17.3382 7.22822C19.8107 7.19075 22.2003 8.10268 23.9909 9.77664L28.9422 4.9234C25.807 2.03769 21.6459 0.451177 17.3382 0.501146C10.7812 0.501146 4.78482 4.1239 1.84082 9.87034L7.60137 14.2489C8.97142 10.2201 12.8139 7.22822 17.3382 7.22822Z" fill="#EA4335"/>
</svg>
