<svg width="999" height="295" viewBox="0 0 999 295" fill="none" xmlns="http://www.w3.org/2000/svg">
<path d="M22.9707 73.4817C24.4723 72.5576 25.9597 71.6243 27.448 70.6839C28.3571 70.1026 29.2072 69.4411 30.2352 69.0133C30.5131 68.8943 30.9099 68.9287 31.0707 68.6419L31.0697 68.6491C31.3647 68.5176 31.692 68.4339 31.9469 68.2537C32.9147 67.5775 34.0164 66.9982 34.8635 66.2413C34.8986 66.2092 34.9954 66.2357 35.0466 66.1983C35.3016 66.018 36.1706 65.3296 36.7763 64.9445C38.1727 64.0584 39.5291 63.1236 40.5695 61.7701C40.7285 61.5561 43.4278 59.1373 42.3962 57.8125C41.3256 56.4319 38.1328 57.9575 37.8002 58.2595C37.0016 59.0004 36.34 59.9335 35.2663 60.2973C33.6917 60.8328 32.5321 61.9161 31.1764 62.7269C29.9544 63.4593 28.838 64.3289 27.6094 65.0532C26.4565 65.7284 25.1248 66.1771 24.03 66.9398C23.0879 67.5973 22.4036 68.586 21.5471 69.3562C21.3462 69.5359 20.8914 69.4724 20.6583 69.6626C20.4679 69.8216 20.1361 70.058 20.0256 70.3145C19.9803 70.4257 19.9331 70.5513 19.8163 70.5587C19.2554 70.599 16.3617 73.0887 17.6197 74.6897C18.835 76.2634 21.67 74.2847 22.9707 73.4817Z" fill="#F29900"/>
<path d="M25.2094 48.0171C26.5664 47.8489 27.9253 47.6664 29.2775 47.4757C30.1106 47.3596 30.9189 47.1382 31.7828 47.2012C32.0201 47.2159 32.2948 47.4177 32.4957 47.2381C32.7491 47.2475 33.0103 47.3163 33.2484 47.2654C34.1441 47.084 35.1207 47.0514 35.9554 46.7457C35.9877 46.735 36.0485 46.801 36.0969 46.785C36.335 46.7341 37.1679 46.5012 37.7183 46.4232C38.9927 46.2375 40.2499 46.0059 41.3969 45.2568C41.5741 45.1402 44.2403 44.1627 43.8935 42.5575C43.5322 40.8848 40.7653 40.8568 40.4334 40.9765C39.6376 41.2797 38.8803 41.8212 37.9954 41.6829C36.6946 41.4784 35.5394 41.9343 34.3105 42.0673C33.2068 42.1865 32.1424 42.4783 31.0406 42.5832C30.0015 42.6811 28.9124 42.5101 27.8982 42.7131C27.0263 42.8902 26.2339 43.4641 25.3907 43.7759C25.1886 43.846 24.8816 43.5964 24.6568 43.6634C24.4718 43.7207 24.1615 43.792 24.0081 43.9629C23.9447 44.0354 23.8708 44.1284 23.7834 44.0885C23.3625 43.8831 20.5302 44.8327 20.9717 46.7781C21.3941 48.692 24.0328 48.1638 25.2094 48.0171Z" fill="#F29900"/>
<path d="M20.8137 20.8174C22.6459 21.4452 24.481 22.0515 26.3236 22.6587C27.4558 23.0321 28.6172 23.2997 29.688 23.8482C29.9768 24.0009 30.2205 24.3229 30.5811 24.2798L30.5735 24.2789C30.8851 24.4343 31.1836 24.6317 31.5103 24.7303C32.7611 25.082 34.0198 25.61 35.2656 25.8222C35.3111 25.8279 35.3531 25.9207 35.4272 25.9443C35.7624 26.037 36.9618 26.3092 37.7093 26.5549C39.4418 27.1192 41.1884 27.6343 43.0924 27.6507C43.3933 27.6512 47.3642 28.3315 47.8536 26.7642C48.3665 25.1337 44.8619 23.5399 44.3625 23.4637C43.168 23.2723 41.8905 23.3043 40.8366 22.685C39.2952 21.7789 37.5558 21.5057 35.9096 20.9302C34.4336 20.4118 32.9066 20.0479 31.4323 19.5155C30.0541 19.0166 28.7578 18.2433 27.3437 17.8421C26.1233 17.4945 24.7746 17.5395 23.5137 17.3255C23.2193 17.2743 22.9613 16.8848 22.646 16.8165C22.383 16.7621 21.9433 16.642 21.6416 16.7072C21.5144 16.7353 21.3702 16.7758 21.2818 16.6847C20.8652 16.2682 16.7005 15.4762 16.113 17.382C15.5567 19.2262 19.2255 20.2707 20.8137 20.8174Z" fill="#F29900"/>
<path d="M63.046 37.1502C63.9105 31.6954 69.0333 27.9743 74.4881 28.8387L162.391 42.77C167.846 43.6345 171.567 48.7573 170.702 54.2121L165.38 87.7929L67.6007 72.2964C62.1459 71.4319 58.4248 66.3091 59.2893 60.8543L63.046 37.1502Z" fill="#F29900"/>
<path d="M76.1756 59.4806L78.7411 43.2927L84.9555 44.2775C86.0709 44.4543 87.025 44.806 87.8177 45.3326C88.6248 45.8614 89.2138 46.5488 89.5847 47.3946C89.9555 48.2404 90.0514 49.2282 89.8723 50.3581C89.6979 51.4591 89.2963 52.3532 88.6676 53.0406C88.0534 53.7303 87.2796 54.2091 86.3462 54.477C85.4295 54.7326 84.4207 54.7732 83.3198 54.5987L80.4733 54.1476L79.5435 60.0144L76.1756 59.4806ZM80.9382 51.2142L83.8064 51.6688C84.2844 51.7445 84.7122 51.7158 85.0897 51.5826C85.4672 51.4494 85.7765 51.2311 86.0177 50.9278C86.2733 50.6267 86.4355 50.2589 86.5044 49.8244C86.5755 49.3753 86.5361 48.9681 86.3861 48.6028C86.2506 48.2398 86.024 47.9366 85.7061 47.6931C85.3883 47.4497 84.9904 47.2901 84.5124 47.2144L81.6442 46.7598L80.9382 51.2142ZM90.0475 61.6791L91.9278 49.8152L94.9698 50.2973L94.5187 53.1438L94.3668 52.6965C94.786 51.7383 95.3201 51.1324 95.9691 50.8789C96.6349 50.6132 97.3806 50.5457 98.2063 50.6766L98.9017 50.7868L98.454 53.6115L97.4327 53.4497C96.636 53.3234 95.9524 53.4675 95.3818 53.882C94.8135 54.282 94.4593 54.9238 94.3193 55.8074L93.3068 62.1957L90.0475 61.6791ZM104.276 64.2015C103.103 64.0155 102.074 63.5776 101.188 62.8878C100.317 62.2003 99.665 61.3471 99.2325 60.3282C98.8168 59.2971 98.7031 58.1876 98.8913 56.9998C99.0819 55.7974 99.5331 54.7775 100.245 53.9399C100.971 53.1047 101.855 52.4948 102.896 52.1104C103.952 51.7282 105.066 51.6301 106.239 51.8161C107.413 52.002 108.435 52.4387 109.306 53.1262C110.177 53.8137 110.822 54.6658 111.24 55.6824C111.672 56.7014 111.793 57.812 111.603 59.0143C111.414 60.2022 110.956 61.221 110.227 62.0707C109.515 62.9083 108.639 63.5193 107.598 63.9037C106.557 64.2882 105.45 64.3874 104.276 64.2015ZM104.741 61.2681C105.335 61.3622 105.871 61.3061 106.35 61.0997C106.842 60.8957 107.251 60.5669 107.575 60.1134C107.914 59.6622 108.134 59.1179 108.235 58.4805C108.336 57.8432 108.294 57.2648 108.109 56.7454C107.941 56.2139 107.654 55.7749 107.248 55.4285C106.86 55.0699 106.368 54.8436 105.774 54.7494C105.181 54.6553 104.636 54.7175 104.141 54.9361C103.648 55.1401 103.233 55.4678 102.894 55.919C102.572 56.358 102.36 56.8962 102.259 57.5335C102.158 58.1709 102.192 58.7554 102.36 59.2869C102.543 59.8208 102.837 60.2609 103.242 60.6073C103.648 60.9537 104.147 61.174 104.741 61.2681ZM110.384 69.8471C110.167 69.8127 109.959 69.7649 109.761 69.7038C109.546 69.6549 109.368 69.6044 109.228 69.5525L109.669 66.7712C109.908 66.8537 110.151 66.9145 110.397 66.9535C111.02 67.0522 111.504 66.9953 111.85 66.7828C112.21 66.5725 112.431 66.2067 112.514 65.6852L114.463 53.3867L117.722 53.9032L115.773 66.2017C115.626 67.1288 115.313 67.8885 114.833 68.4806C114.365 69.0896 113.75 69.5044 112.987 69.7251C112.237 69.9625 111.369 70.0032 110.384 69.8471ZM114.632 52.322L115.148 49.0626L118.408 49.5792L117.891 52.8385L114.632 52.322ZM123.9 67.3116C122.64 67.1118 121.59 66.6633 120.75 65.9659C119.913 65.254 119.315 64.3871 118.957 63.3652C118.599 62.3432 118.511 61.2601 118.693 60.1157C118.881 58.9278 119.309 57.9117 119.978 57.0673C120.661 56.2251 121.494 55.6072 122.477 55.2136C123.46 54.8199 124.516 54.7127 125.646 54.8917C126.588 55.0409 127.396 55.3251 128.073 55.7441C128.751 56.1486 129.294 56.6578 129.701 57.2719C130.124 57.8882 130.409 58.5719 130.557 59.3231C130.707 60.0597 130.717 60.8409 130.586 61.6666C130.55 61.8983 130.499 62.1278 130.433 62.355C130.384 62.57 130.318 62.7526 130.235 62.9027L121.348 61.4943L121.726 59.1041L128.766 60.2198L127.045 61.1052C127.288 60.5053 127.368 59.9537 127.285 59.4504C127.203 58.9326 126.982 58.504 126.62 58.1645C126.275 57.8128 125.812 57.591 125.233 57.4992C124.668 57.4096 124.161 57.4703 123.712 57.6813C123.262 57.8922 122.894 58.2496 122.606 58.7535C122.318 59.2573 122.135 59.8966 122.057 60.6712C121.894 61.3284 121.88 61.9277 122.017 62.4691C122.154 63.0105 122.424 63.4617 122.827 63.8226C123.233 64.169 123.754 64.3927 124.392 64.4937C124.971 64.5856 125.482 64.5477 125.924 64.3802C126.381 64.215 126.757 63.948 127.054 63.5791L129.465 65.2309C129.141 65.7736 128.691 66.2221 128.115 66.5763C127.554 66.9328 126.913 67.1803 126.194 67.3186C125.476 67.4425 124.712 67.4401 123.9 67.3116ZM137.293 69.434C136.105 69.2458 135.075 68.8079 134.204 68.1204C133.35 67.4207 132.715 66.5553 132.299 65.5242C131.898 64.4954 131.79 63.3943 131.976 62.2209C132.162 61.0476 132.604 60.041 133.301 59.2011C134.001 58.3468 134.871 57.7274 135.912 57.3429C136.953 56.9584 138.068 56.8603 139.255 57.0486C140.139 57.1886 140.933 57.4705 141.638 57.894C142.343 58.3176 142.92 58.8471 143.369 59.4825C143.82 60.1034 144.103 60.8017 144.218 61.5772L141.2 62.3463C141.091 61.7203 140.818 61.1944 140.381 60.7686C139.958 60.3452 139.428 60.083 138.791 59.982C138.226 59.8925 137.697 59.9497 137.204 60.1538C136.726 60.3601 136.317 60.6889 135.979 61.1401C135.654 61.5936 135.442 62.139 135.341 62.7764C135.24 63.4138 135.273 63.9983 135.441 64.5298C135.624 65.0636 135.911 65.5026 136.302 65.8467C136.707 66.1931 137.192 66.4111 137.757 66.5006C138.409 66.6039 139.002 66.5196 139.535 66.2477C140.068 65.9758 140.483 65.559 140.78 64.9972L143.408 66.6834C143.081 67.3443 142.606 67.9075 141.982 68.3731C141.359 68.8386 140.646 69.171 139.842 69.3703C139.04 69.5551 138.191 69.5764 137.293 69.434ZM150.488 71.3917C149.054 71.1644 147.999 70.6037 147.324 69.7097C146.666 68.8035 146.447 67.6551 146.667 66.2644L147.422 61.5058L145.423 61.189L145.87 58.3642L145.979 58.3815C146.587 58.4779 147.075 58.3992 147.442 58.1456C147.823 57.8942 148.062 57.4642 148.159 56.8558L148.296 55.9867L151.556 56.5032L151.129 59.1976L153.91 59.6384L153.462 62.4632L150.681 62.0224L149.961 66.5637C149.897 66.9693 149.915 67.3212 150.017 67.6194C150.12 67.9031 150.314 68.1342 150.597 68.3128C150.881 68.4914 151.247 68.6163 151.696 68.6874C151.798 68.7035 151.915 68.7146 152.047 68.7208C152.18 68.727 152.32 68.7343 152.467 68.7428L152.03 71.5023C151.808 71.4969 151.557 71.4868 151.277 71.4722C150.997 71.4575 150.734 71.4307 150.488 71.3917Z" fill="white"/>
<path d="M892.342 64.5368C892.974 59.0503 897.934 55.1149 903.421 55.7469L988.856 65.5883C994.342 66.2203 998.278 71.1803 997.646 76.6669L994.899 100.509C994.267 105.996 989.307 109.931 983.821 109.299L888.451 98.3135L892.342 64.5368Z" fill="#9159D8"/>
<path d="M906.594 86.3108L908.469 70.0285L914.72 70.7485C915.842 70.8777 916.81 71.1885 917.624 71.681C918.453 72.1751 919.071 72.8368 919.477 73.6661C919.884 74.4953 920.021 75.4782 919.891 76.6147C919.763 77.7221 919.4 78.6325 918.801 79.346C918.216 80.0611 917.464 80.5723 916.542 80.8796C915.638 81.174 914.631 81.2574 913.524 81.1298L910.661 80.8L909.981 86.701L906.594 86.3108ZM911.001 77.8495L913.886 78.1819C914.367 78.2372 914.793 78.1904 915.164 78.0412C915.536 77.8921 915.835 77.6609 916.064 77.3476C916.306 77.036 916.453 76.6616 916.503 76.2245C916.555 75.7728 916.498 75.3677 916.333 75.0091C916.182 74.6521 915.943 74.3588 915.615 74.1291C915.287 73.8994 914.883 73.7569 914.402 73.7015L911.517 73.3692L911.001 77.8495ZM925.837 88.7932C924.57 88.6472 923.502 88.2437 922.633 87.5826C921.766 86.9069 921.132 86.0662 920.731 85.0604C920.33 84.0546 920.196 82.9761 920.329 81.8251C920.466 80.6303 920.851 79.5969 921.483 78.7248C922.129 77.8544 922.935 77.2017 923.901 76.7666C924.866 76.3316 925.917 76.1795 927.054 76.3104C928.001 76.4195 928.821 76.669 929.514 77.0589C930.209 77.4343 930.773 77.92 931.207 78.5162C931.655 79.114 931.968 79.785 932.149 80.5292C932.33 81.2588 932.373 82.0388 932.278 82.8693C932.251 83.1024 932.209 83.3339 932.153 83.5637C932.114 83.7805 932.055 83.9657 931.979 84.1193L923.04 83.0896L923.317 80.6855L930.398 81.5012L928.715 82.459C928.933 81.8492 928.989 81.2947 928.885 80.7954C928.781 80.2816 928.542 79.8627 928.166 79.5389C927.806 79.2022 927.335 79.0002 926.752 78.9331C926.183 78.8676 925.679 78.9498 925.24 79.1797C924.8 79.4095 924.447 79.7822 924.181 80.2979C923.915 80.8135 923.759 81.4599 923.714 82.2372C923.578 82.9007 923.59 83.5 923.75 84.0351C923.91 84.5703 924.199 85.0096 924.617 85.353C925.037 85.6819 925.567 85.8832 926.208 85.9571C926.791 86.0242 927.3 85.9647 927.735 85.7786C928.184 85.5941 928.549 85.3113 928.829 84.9302L931.308 86.4781C931.008 87.0341 930.578 87.5012 930.017 87.8796C929.472 88.2596 928.842 88.5341 928.129 88.7029C927.417 88.8571 926.653 88.8872 925.837 88.7932ZM939.373 90.3524C938.193 90.2165 937.146 89.8227 936.232 89.1712C935.332 88.5213 934.645 87.6966 934.169 86.6969C933.71 85.6844 933.549 84.5808 933.687 83.386C933.826 82.1767 934.234 81.1385 934.909 80.2714C935.6 79.4061 936.457 78.7592 937.48 78.3309C938.519 77.9042 939.628 77.7589 940.808 77.8948C941.988 78.0308 943.028 78.4237 943.928 79.0736C944.827 79.7234 945.507 80.5473 945.968 81.5453C946.444 82.5449 946.612 83.6494 946.472 84.8588C946.335 86.0535 945.92 87.0909 945.228 87.9708C944.552 88.8379 943.703 89.4855 942.679 89.9139C941.655 90.3422 940.553 90.4884 939.373 90.3524ZM939.713 87.402C940.31 87.4708 940.844 87.3919 941.313 87.1654C941.796 86.9406 942.19 86.5948 942.495 86.1279C942.814 85.6628 943.011 85.1096 943.085 84.4685C943.159 83.8274 943.092 83.2514 942.885 82.7403C942.695 82.2164 942.389 81.79 941.97 81.4612C941.566 81.1194 941.066 80.9141 940.468 80.8453C939.871 80.7765 939.33 80.8618 938.844 81.1012C938.361 81.326 937.959 81.671 937.64 82.1361C937.337 82.5884 937.148 83.1351 937.075 83.7762C937.001 84.4173 937.059 84.9998 937.25 85.5237C937.455 86.0493 937.767 86.4766 938.187 86.8054C938.607 87.1343 939.116 87.3331 939.713 87.402ZM947.213 95.4189L949.091 79.1147L952.151 79.4671L951.889 81.7401L951.68 81.0517C952.143 80.4997 952.727 80.1019 953.434 79.8586C954.158 79.6024 954.957 79.5246 955.831 79.6253C956.967 79.7562 957.963 80.1514 958.817 80.8108C959.671 81.4702 960.313 82.3045 960.743 83.3137C961.175 84.3083 961.323 85.3884 961.189 86.554C961.057 87.7051 960.666 88.7231 960.018 89.608C959.384 90.4947 958.577 91.162 957.595 91.6099C956.613 92.0579 955.54 92.2147 954.374 92.0804C953.558 91.9864 952.817 91.7534 952.151 91.3815C951.502 90.9966 950.999 90.4884 950.644 89.857L951.246 89.2399L950.491 95.7965L947.213 95.4189ZM954.32 89.0846C954.932 89.1551 955.487 89.0788 955.986 88.8557C956.484 88.6325 956.892 88.2884 957.212 87.8232C957.531 87.358 957.728 86.8049 957.802 86.1638C957.875 85.5227 957.809 84.9466 957.602 84.4356C957.397 83.91 957.077 83.4819 956.643 83.1514C956.21 82.8063 955.688 82.5985 955.076 82.528C954.493 82.4608 953.952 82.5388 953.454 82.762C952.971 82.9868 952.569 83.3318 952.25 83.7969C951.945 84.2638 951.756 84.8178 951.682 85.4589C951.608 86.1 951.667 86.6825 951.857 87.2064C952.062 87.732 952.375 88.1592 952.795 88.4881C953.229 88.8186 953.738 89.0175 954.32 89.0846ZM962.422 92.7417L964.328 76.1971L967.606 76.5748L965.7 93.1194L962.422 92.7417ZM973.817 94.3201C972.549 94.1741 971.481 93.7705 970.612 93.1094C969.745 92.4338 969.111 91.593 968.711 90.5872C968.31 89.5814 968.176 88.503 968.308 87.3519C968.446 86.1571 968.831 85.1237 969.463 84.2516C970.109 83.3812 970.915 82.7285 971.881 82.2935C972.846 81.8584 973.897 81.7064 975.033 81.8373C975.98 81.9464 976.801 82.1959 977.494 82.5858C978.189 82.9611 978.753 83.4468 979.186 84.043C979.634 84.6408 979.948 85.3118 980.128 86.056C980.31 86.7856 980.353 87.5656 980.257 88.3961C980.23 88.6293 980.189 88.8607 980.133 89.0905C980.093 89.3074 980.035 89.4926 979.958 89.6461L971.019 88.6165L971.296 86.2124L978.377 87.028L976.695 87.9858C976.913 87.376 976.969 86.8215 976.864 86.3223C976.761 85.8084 976.521 85.3896 976.145 85.0657C975.785 84.729 975.314 84.5271 974.731 84.4599C974.163 84.3945 973.659 84.4767 973.219 84.7065C972.779 84.9364 972.426 85.3091 972.16 85.8247C971.894 86.3403 971.739 86.9867 971.693 87.764C971.558 88.4275 971.57 89.0268 971.73 89.562C971.89 90.0971 972.179 90.5364 972.597 90.8798C973.016 91.2087 973.547 91.4101 974.188 91.4839C974.771 91.551 975.28 91.4915 975.714 91.3054C976.164 91.121 976.529 90.8382 976.809 90.4571L979.288 92.0049C978.988 92.5609 978.557 93.028 977.997 93.4064C977.451 93.7865 976.822 94.0609 976.108 94.2297C975.397 94.3839 974.633 94.4141 973.817 94.3201Z" fill="white"/>
<path d="M847.719 221.668L918.817 238.222C924.196 239.475 927.541 244.85 926.289 250.229L920.846 273.604C919.594 278.983 914.218 282.328 908.839 281.076L847.48 266.79C842.101 265.537 838.756 260.161 840.009 254.782L847.719 221.668Z" fill="#EC4747"/>
<path d="M864.933 256.75C863.791 256.484 862.775 256.029 861.885 255.385C861.011 254.745 860.295 253.969 859.74 253.056C859.184 252.144 858.816 251.139 858.634 250.043C858.467 248.95 858.522 247.811 858.798 246.625C859.074 245.439 859.528 244.393 860.161 243.486C860.797 242.565 861.564 241.825 862.462 241.266C863.364 240.693 864.347 240.32 865.411 240.146C866.493 239.961 867.613 240.003 868.77 240.273C869.927 240.542 870.918 240.976 871.742 241.575C872.581 242.177 873.247 242.874 873.74 243.666C874.233 244.459 874.524 245.279 874.612 246.128L871.347 246.859C871.256 246.024 870.925 245.277 870.356 244.618C869.804 243.947 869.043 243.499 868.071 243.273C867.129 243.053 866.249 243.082 865.431 243.358C864.614 243.635 863.914 244.119 863.331 244.812C862.766 245.493 862.362 246.355 862.119 247.398C861.876 248.441 861.856 249.4 862.059 250.276C862.276 251.154 862.69 251.898 863.301 252.507C863.912 253.117 864.689 253.531 865.632 253.75C866.603 253.977 867.483 253.918 868.27 253.574C869.076 253.22 869.704 252.688 870.155 251.98L872.761 254.078C872.307 254.8 871.684 255.408 870.891 255.901C870.099 256.394 869.193 256.725 868.175 256.895C867.171 257.068 866.09 257.02 864.933 256.75ZM873.724 258.526L877.5 242.306L880.714 243.054L879.123 249.889L878.857 249.285C879.291 248.648 879.847 248.236 880.523 248.047C881.217 247.847 881.971 247.842 882.786 248.031C883.671 248.238 884.399 248.603 884.97 249.127C885.555 249.655 885.955 250.298 886.17 251.056C886.388 251.799 886.395 252.614 886.188 253.499L884.437 261.02L881.223 260.272L882.815 253.437C882.921 252.98 882.92 252.565 882.811 252.193C882.716 251.825 882.525 251.51 882.24 251.247C881.969 250.989 881.619 250.809 881.191 250.709C880.777 250.613 880.384 250.619 880.012 250.729C879.64 250.838 879.323 251.035 879.061 251.32C878.813 251.609 878.636 251.982 878.529 252.439L876.938 259.274L873.724 258.526ZM890.112 262.613C889.269 262.416 888.572 262.111 888.021 261.697C887.47 261.282 887.089 260.787 886.876 260.21C886.668 259.619 886.645 258.974 886.808 258.274C886.961 257.617 887.245 257.074 887.662 256.643C888.081 256.199 888.638 255.877 889.332 255.677C890.041 255.481 890.876 255.419 891.838 255.492L895.55 255.747L895.002 258.104L891.877 257.941C891.4 257.92 891.015 257.989 890.723 258.147C890.433 258.29 890.244 258.555 890.154 258.94C890.071 259.297 890.141 259.608 890.366 259.871C890.591 260.134 890.904 260.312 891.304 260.405C891.832 260.528 892.323 260.522 892.776 260.387C893.229 260.251 893.608 260.016 893.912 259.68C894.234 259.333 894.449 258.924 894.559 258.453L895.268 255.41C895.371 254.967 895.279 254.554 894.991 254.171C894.718 253.791 894.282 253.532 893.682 253.392C893.11 253.259 892.567 253.298 892.051 253.509C891.549 253.724 891.138 254.065 890.819 254.532L888.532 252.712C888.913 252.108 889.409 251.629 890.019 251.274C890.628 250.919 891.313 250.694 892.073 250.6C892.833 250.506 893.627 250.556 894.455 250.748C895.441 250.978 896.271 251.359 896.945 251.893C897.619 252.426 898.088 253.062 898.353 253.802C898.635 254.53 898.678 255.316 898.482 256.158L896.686 263.872L893.686 263.174L894.125 261.288L894.883 261.329C894.421 261.764 893.942 262.104 893.448 262.35C892.958 262.582 892.437 262.717 891.886 262.755C891.332 262.806 890.74 262.759 890.112 262.613ZM904.439 265.813C903.025 265.483 902.013 264.849 901.403 263.909C900.812 262.958 900.675 261.797 900.995 260.425L902.087 255.733L900.116 255.274L900.765 252.488L900.872 252.513C901.472 252.653 901.964 252.61 902.348 252.383C902.746 252.159 903.015 251.748 903.155 251.148L903.354 250.291L906.569 251.039L905.95 253.696L908.693 254.334L908.044 257.12L905.301 256.481L904.259 260.959C904.166 261.359 904.159 261.712 904.238 262.016C904.321 262.307 904.498 262.551 904.768 262.75C905.038 262.948 905.394 263.099 905.837 263.202C905.937 263.225 906.053 263.245 906.185 263.26C906.317 263.276 906.456 263.293 906.602 263.312L905.969 266.033C905.748 266.012 905.498 265.984 905.22 265.95C904.942 265.915 904.682 265.869 904.439 265.813Z" fill="white"/>
<path d="M935.573 275.269C937.177 276.39 938.796 277.491 940.412 278.597C941.407 279.273 942.446 279.878 943.352 280.677C943.6 280.899 943.762 281.238 944.111 281.321L944.105 281.319C944.371 281.547 944.611 281.808 944.909 281.997C946.02 282.701 947.106 283.544 948.235 284.13C948.278 284.151 948.302 284.24 948.364 284.28C948.662 284.469 949.741 285.088 950.394 285.535C951.918 286.566 953.465 287.568 955.243 288.212C955.522 288.314 959.125 290.186 959.859 289.089C960.63 287.943 957.618 285.486 957.17 285.257C956.08 284.703 954.877 284.306 954.005 283.451C952.725 282.202 951.136 281.401 949.701 280.388C948.407 279.473 947.04 278.675 945.755 277.751C944.551 276.886 943.473 275.83 942.219 275.034C941.134 274.345 939.866 273.933 938.721 273.34C938.45 273.198 938.284 272.801 937.995 272.64C937.752 272.507 937.364 272.268 937.075 272.212C936.951 272.187 936.81 272.176 936.74 272.071C936.424 271.599 932.658 269.566 931.778 270.909C930.919 272.228 934.178 274.301 935.573 275.269Z" fill="#EC4747"/>
<path d="M959.646 273.126C960.991 273.202 962.343 273.261 963.691 273.312C964.52 273.346 965.349 273.292 966.174 273.478C966.401 273.532 966.622 273.725 966.852 273.613L966.847 273.612C967.089 273.658 967.321 273.751 967.563 273.748C968.47 273.74 969.413 273.861 970.283 273.748C970.317 273.742 970.363 273.807 970.414 273.806C970.655 273.803 971.511 273.746 972.059 273.769C973.326 273.818 974.595 273.824 975.865 273.411C976.066 273.344 978.842 272.982 978.844 271.67C978.848 270.302 976.187 269.859 975.839 269.912C975.005 270.031 974.165 270.34 973.336 270.097C972.124 269.741 970.908 269.919 969.696 269.841C968.609 269.768 967.516 269.835 966.427 269.749C965.404 269.674 964.384 269.365 963.363 269.371C962.482 269.375 961.595 269.71 960.712 269.825C960.506 269.853 960.254 269.606 960.025 269.625C959.836 269.64 959.523 269.649 959.336 269.764C959.256 269.81 959.17 269.873 959.091 269.827C958.73 269.604 955.794 269.917 955.804 271.511C955.818 273.076 958.48 273.063 959.646 273.126Z" fill="#EC4747"/>
<path d="M951.136 265.085C953.109 265.019 955.089 264.931 957.062 264.847C958.27 264.795 959.48 264.651 960.703 264.752C961.034 264.78 961.384 264.95 961.711 264.816L961.703 264.82C962.055 264.842 962.413 264.904 962.764 264.877C964.086 264.772 965.482 264.797 966.74 264.59C966.788 264.581 966.862 264.638 966.934 264.632C967.285 264.605 968.529 264.455 969.333 264.417C971.187 264.329 973.042 264.204 974.86 263.66C975.144 263.573 979.176 262.923 979.071 261.61C978.964 260.248 975.038 260.084 974.539 260.17C973.331 260.377 972.124 260.774 970.895 260.622C969.098 260.397 967.336 260.701 965.56 260.749C963.963 260.79 962.374 260.969 960.779 261.005C959.281 261.037 957.764 260.841 956.268 260.954C954.979 261.052 953.711 261.478 952.432 261.69C952.129 261.74 951.747 261.522 951.414 261.567C951.142 261.603 950.684 261.642 950.414 261.777C950.298 261.836 950.183 261.907 950.065 261.867C949.52 261.679 945.256 262.305 945.4 263.895C945.537 265.435 949.421 265.14 951.136 265.085Z" fill="#EC4747"/>
<path d="M136.273 241.48C135.123 236.078 138.568 230.766 143.97 229.615L214.389 214.61L221.475 247.864C222.626 253.265 219.18 258.577 213.778 259.728L153.14 272.649C147.738 273.8 142.426 270.354 141.275 264.953L136.273 241.48Z" fill="#57BF57"/>
<path d="M164.334 256.219C163.186 256.464 162.073 256.484 160.995 256.279C159.931 256.07 158.953 255.671 158.063 255.081C157.172 254.491 156.412 253.739 155.782 252.823C155.167 251.904 154.732 250.85 154.478 249.659C154.225 248.469 154.192 247.329 154.379 246.239C154.564 245.135 154.944 244.139 155.52 243.252C156.092 242.35 156.824 241.594 157.713 240.985C158.615 240.358 159.646 239.92 160.808 239.673C161.97 239.425 163.051 239.397 164.052 239.589C165.067 239.778 165.966 240.126 166.749 240.634C167.532 241.142 168.144 241.761 168.584 242.492L165.939 244.54C165.502 243.824 164.885 243.288 164.089 242.933C163.305 242.56 162.425 242.477 161.45 242.685C160.503 242.887 159.719 243.287 159.096 243.884C158.474 244.482 158.046 245.218 157.812 246.092C157.59 246.949 157.59 247.902 157.813 248.949C158.037 249.996 158.426 250.873 158.981 251.579C159.551 252.282 160.242 252.78 161.054 253.072C161.866 253.364 162.745 253.409 163.692 253.207C164.667 252.999 165.439 252.572 166.006 251.927C166.584 251.264 166.927 250.516 167.035 249.683L170.285 250.475C170.181 251.322 169.875 252.137 169.367 252.92C168.859 253.703 168.18 254.388 167.33 254.974C166.494 255.557 165.496 255.972 164.334 256.219ZM173.283 254.043L169.867 238.013L175.999 236.706C177.104 236.47 178.121 236.456 179.05 236.663C179.993 236.867 180.789 237.297 181.439 237.954C182.089 238.61 182.533 239.498 182.771 240.616C183.003 241.707 182.951 242.693 182.614 243.574C182.274 244.441 181.722 245.159 180.958 245.726L185.978 251.338L182.234 252.135L176.766 245.9L179.189 246.711L175.38 247.522L176.618 253.332L173.283 254.043ZM174.761 244.618L177.58 244.017C178.053 243.916 178.442 243.736 178.747 243.476C179.051 243.216 179.262 242.901 179.378 242.532C179.508 242.159 179.528 241.757 179.436 241.327C179.341 240.882 179.158 240.517 178.887 240.229C178.63 239.939 178.31 239.738 177.926 239.624C177.542 239.511 177.113 239.505 176.64 239.606L173.821 240.207L174.761 244.618ZM187.634 250.985L184.219 234.954L187.446 234.267L195.146 240.949L193.64 241.27L197.774 232.066L201.002 231.378L204.418 247.408L201.083 248.119L198.451 235.768L199.849 235.785L195.37 245.062L194.94 245.154L187.283 238.463L188.338 237.923L190.97 250.274L187.634 250.985Z" fill="white"/>
</svg>
