<svg width="511" height="47" viewBox="0 0 511 47" fill="none" xmlns="http://www.w3.org/2000/svg">
<path d="M11.3697 41.75L0.839728 1.52H9.91173L17.8497 35.216H15.4197L23.7897 1.52H32.4297L40.7997 35.216H38.3697L46.3077 1.52H55.3797L44.8497 41.75H35.1297L26.7057 9.35H29.5137L21.0897 41.75H11.3697ZM72.6032 42.398C69.4712 42.398 66.7532 41.714 64.4492 40.346C62.1452 38.942 60.3632 37.07 59.1032 34.73C57.8432 32.39 57.2132 29.798 57.2132 26.954C57.2132 24.002 57.8612 21.374 59.1572 19.07C60.4892 16.766 62.2712 14.948 64.5032 13.616C66.7352 12.284 69.2552 11.618 72.0632 11.618C74.4032 11.618 76.4732 11.996 78.2732 12.752C80.0732 13.472 81.5852 14.498 82.8092 15.83C84.0692 17.162 85.0232 18.71 85.6712 20.474C86.3192 22.202 86.6432 24.092 86.6432 26.144C86.6432 26.72 86.6072 27.296 86.5352 27.872C86.4992 28.412 86.4092 28.88 86.2652 29.276H64.1792V23.336H81.6752L77.8412 26.144C78.2012 24.596 78.1832 23.228 77.7872 22.04C77.3912 20.816 76.6892 19.862 75.6812 19.178C74.7092 18.458 73.5032 18.098 72.0632 18.098C70.6592 18.098 69.4532 18.44 68.4452 19.124C67.4372 19.808 66.6812 20.816 66.1772 22.148C65.6732 23.48 65.4752 25.1 65.5832 27.008C65.4392 28.664 65.6372 30.122 66.1772 31.382C66.7172 32.642 67.5452 33.632 68.6612 34.352C69.7772 35.036 71.1272 35.378 72.7112 35.378C74.1512 35.378 75.3752 35.09 76.3832 34.514C77.4272 33.938 78.2372 33.146 78.8132 32.138L85.2932 35.216C84.7172 36.656 83.7992 37.916 82.5392 38.996C81.3152 40.076 79.8572 40.922 78.1652 41.534C76.4732 42.11 74.6192 42.398 72.6032 42.398ZM92.4929 41.75V0.871998H100.593V41.75H92.4929ZM122.072 42.398C119.12 42.398 116.456 41.732 114.08 40.4C111.74 39.032 109.868 37.178 108.464 34.838C107.096 32.498 106.412 29.87 106.412 26.954C106.412 24.038 107.096 21.428 108.464 19.124C109.832 16.784 111.704 14.948 114.08 13.616C116.456 12.284 119.12 11.618 122.072 11.618C124.268 11.618 126.302 11.996 128.174 12.752C130.046 13.508 131.648 14.57 132.98 15.938C134.312 17.27 135.266 18.854 135.842 20.69L128.822 23.714C128.318 22.238 127.454 21.068 126.23 20.204C125.042 19.34 123.656 18.908 122.072 18.908C120.668 18.908 119.408 19.25 118.292 19.934C117.212 20.618 116.348 21.572 115.7 22.796C115.088 24.02 114.782 25.424 114.782 27.008C114.782 28.592 115.088 29.996 115.7 31.22C116.348 32.444 117.212 33.398 118.292 34.082C119.408 34.766 120.668 35.108 122.072 35.108C123.692 35.108 125.096 34.676 126.284 33.812C127.472 32.948 128.318 31.778 128.822 30.302L135.842 33.38C135.302 35.108 134.366 36.656 133.034 38.024C131.702 39.392 130.1 40.472 128.228 41.264C126.356 42.02 124.304 42.398 122.072 42.398ZM156.326 42.398C153.41 42.398 150.746 41.732 148.334 40.4C145.958 39.068 144.05 37.25 142.61 34.946C141.206 32.606 140.504 29.96 140.504 27.008C140.504 24.02 141.206 21.374 142.61 19.07C144.05 16.766 145.958 14.948 148.334 13.616C150.746 12.284 153.41 11.618 156.326 11.618C159.242 11.618 161.888 12.284 164.264 13.616C166.64 14.948 168.53 16.766 169.934 19.07C171.374 21.374 172.094 24.02 172.094 27.008C172.094 29.96 171.374 32.606 169.934 34.946C168.53 37.25 166.64 39.068 164.264 40.4C161.888 41.732 159.242 42.398 156.326 42.398ZM156.326 35.108C157.802 35.108 159.08 34.766 160.16 34.082C161.276 33.398 162.14 32.444 162.752 31.22C163.4 29.996 163.724 28.592 163.724 27.008C163.724 25.424 163.4 24.038 162.752 22.85C162.14 21.626 161.276 20.672 160.16 19.988C159.08 19.268 157.802 18.908 156.326 18.908C154.85 18.908 153.554 19.268 152.438 19.988C151.322 20.672 150.44 21.626 149.792 22.85C149.18 24.038 148.874 25.424 148.874 27.008C148.874 28.592 149.18 29.996 149.792 31.22C150.44 32.444 151.322 33.398 152.438 34.082C153.554 34.766 154.85 35.108 156.326 35.108ZM177.946 41.75V12.266H185.506V19.448L184.696 18.26C185.128 15.992 186.172 14.318 187.828 13.238C189.484 12.158 191.464 11.618 193.768 11.618C196.216 11.618 198.358 12.248 200.194 13.508C202.066 14.732 203.236 16.388 203.704 18.476L201.382 18.692C202.354 16.28 203.74 14.498 205.54 13.346C207.34 12.194 209.446 11.618 211.858 11.618C213.982 11.618 215.854 12.086 217.474 13.022C219.13 13.958 220.426 15.272 221.362 16.964C222.298 18.62 222.766 20.564 222.766 22.796V41.75H214.666V24.524C214.666 23.372 214.45 22.382 214.018 21.554C213.622 20.726 213.046 20.078 212.29 19.61C211.534 19.142 210.616 18.908 209.536 18.908C208.492 18.908 207.574 19.142 206.782 19.61C206.026 20.078 205.432 20.726 205 21.554C204.604 22.382 204.406 23.372 204.406 24.524V41.75H196.306V24.524C196.306 23.372 196.09 22.382 195.658 21.554C195.262 20.726 194.686 20.078 193.93 19.61C193.174 19.142 192.256 18.908 191.176 18.908C190.132 18.908 189.214 19.142 188.422 19.61C187.666 20.078 187.072 20.726 186.64 21.554C186.244 22.382 186.046 23.372 186.046 24.524V41.75H177.946ZM243.378 42.398C240.246 42.398 237.528 41.714 235.224 40.346C232.92 38.942 231.138 37.07 229.878 34.73C228.618 32.39 227.988 29.798 227.988 26.954C227.988 24.002 228.636 21.374 229.932 19.07C231.264 16.766 233.046 14.948 235.278 13.616C237.51 12.284 240.03 11.618 242.838 11.618C245.178 11.618 247.248 11.996 249.048 12.752C250.848 13.472 252.36 14.498 253.584 15.83C254.844 17.162 255.798 18.71 256.446 20.474C257.094 22.202 257.418 24.092 257.418 26.144C257.418 26.72 257.382 27.296 257.31 27.872C257.274 28.412 257.184 28.88 257.04 29.276H234.954V23.336H252.45L248.616 26.144C248.976 24.596 248.958 23.228 248.562 22.04C248.166 20.816 247.464 19.862 246.456 19.178C245.484 18.458 244.278 18.098 242.838 18.098C241.434 18.098 240.228 18.44 239.22 19.124C238.212 19.808 237.456 20.816 236.952 22.148C236.448 23.48 236.25 25.1 236.358 27.008C236.214 28.664 236.412 30.122 236.952 31.382C237.492 32.642 238.32 33.632 239.436 34.352C240.552 35.036 241.902 35.378 243.486 35.378C244.926 35.378 246.15 35.09 247.158 34.514C248.202 33.938 249.012 33.146 249.588 32.138L256.068 35.216C255.492 36.656 254.574 37.916 253.314 38.996C252.09 40.076 250.632 40.922 248.94 41.534C247.248 42.11 245.394 42.398 243.378 42.398ZM281.881 41.75V8.81H271.675V1.52H300.295V8.81H290.251V41.75H281.881ZM315.763 42.398C312.847 42.398 310.183 41.732 307.771 40.4C305.395 39.068 303.487 37.25 302.047 34.946C300.643 32.606 299.941 29.96 299.941 27.008C299.941 24.02 300.643 21.374 302.047 19.07C303.487 16.766 305.395 14.948 307.771 13.616C310.183 12.284 312.847 11.618 315.763 11.618C318.679 11.618 321.325 12.284 323.701 13.616C326.077 14.948 327.967 16.766 329.371 19.07C330.811 21.374 331.531 24.02 331.531 27.008C331.531 29.96 330.811 32.606 329.371 34.946C327.967 37.25 326.077 39.068 323.701 40.4C321.325 41.732 318.679 42.398 315.763 42.398ZM315.763 35.108C317.239 35.108 318.517 34.766 319.597 34.082C320.713 33.398 321.577 32.444 322.189 31.22C322.837 29.996 323.161 28.592 323.161 27.008C323.161 25.424 322.837 24.038 322.189 22.85C321.577 21.626 320.713 20.672 319.597 19.988C318.517 19.268 317.239 18.908 315.763 18.908C314.287 18.908 312.991 19.268 311.875 19.988C310.759 20.672 309.877 21.626 309.229 22.85C308.617 24.038 308.311 25.424 308.311 27.008C308.311 28.592 308.617 29.996 309.229 31.22C309.877 32.444 310.759 33.398 311.875 34.082C312.991 34.766 314.287 35.108 315.763 35.108ZM368.902 42.398C365.878 42.398 363.07 41.876 360.478 40.832C357.886 39.788 355.618 38.33 353.674 36.458C351.766 34.55 350.272 32.336 349.192 29.816C348.112 27.296 347.572 24.56 347.572 21.608C347.572 18.656 348.094 15.92 349.138 13.4C350.218 10.88 351.712 8.684 353.62 6.812C355.564 4.94 357.832 3.482 360.424 2.438C363.016 1.394 365.842 0.871998 368.902 0.871998C371.962 0.871998 374.788 1.394 377.38 2.438C379.972 3.482 382.222 4.94 384.13 6.812C386.074 8.684 387.568 10.88 388.612 13.4C389.692 15.92 390.232 18.656 390.232 21.608C390.232 24.56 389.692 27.296 388.612 29.816C387.532 32.336 386.02 34.55 384.076 36.458C382.168 38.33 379.918 39.788 377.326 40.832C374.734 41.876 371.926 42.398 368.902 42.398ZM368.902 34.838C370.738 34.838 372.43 34.514 373.978 33.866C375.562 33.218 376.948 32.318 378.136 31.166C379.324 29.978 380.242 28.574 380.89 26.954C381.538 25.334 381.862 23.552 381.862 21.608C381.862 19.664 381.538 17.9 380.89 16.316C380.242 14.696 379.324 13.292 378.136 12.104C376.948 10.916 375.562 10.016 373.978 9.404C372.43 8.756 370.738 8.432 368.902 8.432C367.066 8.432 365.356 8.756 363.772 9.404C362.224 10.016 360.856 10.916 359.668 12.104C358.48 13.292 357.562 14.696 356.914 16.316C356.266 17.9 355.942 19.664 355.942 21.608C355.942 23.552 356.266 25.334 356.914 26.954C357.562 28.574 358.48 29.978 359.668 31.166C360.856 32.318 362.224 33.218 363.772 33.866C365.356 34.514 367.066 34.838 368.902 34.838ZM377.434 46.61L365.446 25.658H374.086L386.236 46.61H377.434ZM407.238 42.398C404.862 42.398 402.828 41.894 401.136 40.886C399.48 39.842 398.22 38.402 397.356 36.566C396.492 34.73 396.06 32.588 396.06 30.14V12.266H404.16V29.492C404.16 30.608 404.376 31.598 404.808 32.462C405.276 33.29 405.924 33.938 406.752 34.406C407.58 34.874 408.516 35.108 409.56 35.108C410.64 35.108 411.576 34.874 412.368 34.406C413.196 33.938 413.826 33.29 414.258 32.462C414.726 31.598 414.96 30.608 414.96 29.492V12.266H423.06V41.75H415.5V35.918L415.932 37.214C415.248 38.978 414.132 40.292 412.584 41.156C411.072 41.984 409.29 42.398 407.238 42.398ZM430.06 41.75V12.266H438.16V41.75H430.06ZM430.06 9.62V1.52H438.16V9.62H430.06ZM445.168 41.75V0.871998H453.268V27.062L450.244 26.09L463.258 12.266H473.248L462.556 24.146L473.194 41.75H464.014L455.104 26.792L459.802 25.604L450.784 35.432L453.268 30.734V41.75H445.168ZM477.888 41.75V12.266H485.988V41.75H477.888ZM477.888 9.62V1.52H485.988V9.62H477.888ZM507.198 42.074C503.634 42.074 500.862 41.12 498.882 39.212C496.938 37.268 495.966 34.568 495.966 31.112V19.286H490.998V12.266H491.268C492.78 12.266 493.932 11.888 494.724 11.132C495.552 10.376 495.966 9.242 495.966 7.73V5.57H504.066V12.266H510.978V19.286H504.066V30.572C504.066 31.58 504.246 32.426 504.606 33.11C504.966 33.758 505.524 34.244 506.28 34.568C507.036 34.892 507.972 35.054 509.088 35.054C509.34 35.054 509.628 35.036 509.952 35C510.276 34.964 510.618 34.928 510.978 34.892V41.75C510.438 41.822 509.826 41.894 509.142 41.966C508.458 42.038 507.81 42.074 507.198 42.074Z" fill="#202020"/>
</svg>
