<svg width="91" height="19" viewBox="0 0 91 19" fill="none" xmlns="http://www.w3.org/2000/svg">
<path d="M0.0600002 19L0.38 16.44V0.184H4.604V15.928H17.852L19.132 18.648C19.132 18.7333 18.844 18.8187 18.268 18.904C17.692 18.968 16.7 19 15.292 19H0.0600002ZM44.57 19V2.744L44.25 0.184H48.858L59.738 11.576L60.986 13.304H61.338V0.184H65.562V19H61.498L50.362 7.416L49.114 5.912H48.794V19H44.57Z" fill="#FFB240"/>
<path d="M26.8935 19C24.6108 19 22.9575 18.4987 21.9335 17.496C20.9095 16.4933 20.3975 14.872 20.3975 12.632V6.776C20.3975 4.472 20.9628 2.79733 22.0935 1.752C23.2242 0.685332 24.8242 0.151999 26.8935 0.151999H36.2375C37.7095 0.151999 38.8295 0.237332 39.5975 0.407999C40.3868 0.557333 40.7815 0.717333 40.7815 0.887999L39.7895 4.888C39.2562 4.824 38.2108 4.76 36.6535 4.696C35.1175 4.61067 33.1762 4.568 30.8295 4.568H29.1975C28.1948 4.568 27.5122 4.76 27.1495 5.144C26.8082 5.50667 26.6375 6.072 26.6375 6.84V12.312C26.6375 13.0373 26.7868 13.6027 27.0855 14.008C27.4055 14.392 28.1095 14.584 29.1975 14.584H30.5095C33.5602 14.584 35.8855 14.552 37.4855 14.488C39.0855 14.4027 40.0455 14.3173 40.3655 14.232L42.3175 17.688C42.3175 17.7947 42.0935 17.9547 41.6455 18.168C41.2188 18.3813 40.4828 18.5733 39.4375 18.744C38.4135 18.9147 36.9842 19 35.1495 19H26.8935ZM75.5835 19C73.3008 19 71.6475 18.4987 70.6235 17.496C69.5995 16.4933 69.0875 14.872 69.0875 12.632V6.776C69.0875 4.472 69.6528 2.79733 70.7835 1.752C71.9142 0.685332 73.5142 0.151999 75.5835 0.151999H84.9275C86.3995 0.151999 87.5195 0.237332 88.2875 0.407999C89.0768 0.557333 89.4715 0.717333 89.4715 0.887999L88.4795 4.888C87.9462 4.824 86.9008 4.76 85.3435 4.696C83.8075 4.61067 81.8662 4.568 79.5195 4.568H77.8875C76.8848 4.568 76.2022 4.76 75.8395 5.144C75.4982 5.50667 75.3275 6.072 75.3275 6.84V12.312C75.3275 13.0373 75.4768 13.6027 75.7755 14.008C76.0955 14.392 76.7995 14.584 77.8875 14.584H79.1995C82.2502 14.584 84.5755 14.552 86.1755 14.488C87.7755 14.4027 88.7355 14.3173 89.0555 14.232L91.0075 17.688C91.0075 17.7947 90.7835 17.9547 90.3355 18.168C89.9088 18.3813 89.1728 18.5733 88.1275 18.744C87.1035 18.9147 85.6742 19 83.8395 19H75.5835Z" fill="#000"/>
</svg>
