<svg width="34" height="35" viewBox="0 0 34 35" fill="none" xmlns="http://www.w3.org/2000/svg">
<path d="M17.0387 0.495117H16.9613C7.59384 0.495117 0 8.09118 0 17.4614V17.5388C0 26.9091 7.59384 34.5051 16.9613 34.5051H17.0387C26.4062 34.5051 34 26.9091 34 17.5388V17.4614C34 8.09118 26.4062 0.495117 17.0387 0.495117Z" fill="#007EBB"/>
<path d="M8.10715 11.8007C7.65926 11.3848 7.43652 10.8701 7.43652 10.2576C7.43652 9.64519 7.66045 9.10781 8.10715 8.69077C8.55503 8.27492 9.13157 8.06641 9.83794 8.06641C10.5443 8.06641 11.0982 8.27492 11.5449 8.69077C11.9928 9.10662 12.2155 9.6297 12.2155 10.2576C12.2155 10.8856 11.9916 11.3848 11.5449 11.8007C11.097 12.2165 10.5288 12.425 9.83794 12.425C9.14705 12.425 8.55503 12.2165 8.10715 11.8007ZM11.8391 14.1861V26.9356H7.81173V14.1861H11.8391Z" fill="#FEFFFC"/>
<path d="M25.2454 15.445C26.1233 16.3982 26.5616 17.7065 26.5616 19.3723V26.7098H22.7368V19.8894C22.7368 19.0494 22.5188 18.3964 22.084 17.9317C21.6492 17.467 21.0631 17.2335 20.3294 17.2335C19.5956 17.2335 19.0095 17.4658 18.5747 17.9317C18.14 18.3964 17.922 19.0494 17.922 19.8894V26.7098H14.0745V14.1498H17.922V15.8155C18.3115 15.2603 18.8368 14.8218 19.4967 14.4989C20.1567 14.176 20.8988 14.0151 21.7242 14.0151C23.1942 14.0151 24.3687 14.4918 25.2454 15.445Z" fill="#FEFFFC"/>
</svg>
