<svg width="305" height="70" viewBox="0 0 305 70" fill="none" xmlns="http://www.w3.org/2000/svg">
<path d="M37.2428 59C33.4628 59 30.4929 58.46 28.3329 57.38C26.1729 56.3 24.6339 54.68 23.7159 52.5201C22.8519 50.3601 22.4199 47.6871 22.4199 44.5011V25.7903C22.4199 22.6584 22.8519 20.0394 23.7159 17.9334C24.5799 15.7734 26.0919 14.1534 28.2519 13.0734C30.4119 11.9395 33.4088 11.3725 37.2428 11.3725H60.8946C64.6745 11.3725 67.6175 11.9395 69.7235 13.0734C71.8835 14.1534 73.3954 15.7734 74.2594 17.9334C75.1774 20.0394 75.6364 22.6584 75.6364 25.7903V36.4012C75.6364 40.4512 75.1234 43.6911 74.0974 46.1211C73.1255 48.4971 71.3705 50.5221 68.8325 52.1961C67.2665 53.2221 64.5935 54.464 60.8136 55.922C63.0815 56.3 65.1875 56.705 67.1315 57.137C69.1295 57.515 70.8575 57.839 72.3155 58.109C74.0974 58.433 75.9064 58.73 77.7424 59C79.6324 59.216 81.2794 59.378 82.6834 59.486C84.0873 59.648 84.9513 59.756 85.2753 59.81L83.4934 66.7759C83.2774 66.8299 82.7104 66.9379 81.7924 67.0999C80.8744 67.3159 79.6324 67.4239 78.0664 67.4239C75.7444 67.4239 73.5574 67.1809 71.5055 66.6949C69.5075 66.2629 67.2935 65.6689 64.8635 64.9129C62.7036 64.2109 60.7056 63.509 58.8696 62.807C57.0876 62.105 55.2246 61.457 53.2806 60.863C51.3367 60.323 49.0957 59.864 46.5577 59.486C44.0197 59.162 40.9148 59 37.2428 59ZM39.5918 51.2241H49.6357C53.2536 51.2241 56.1696 50.8191 58.3836 50.0091C60.6516 49.1451 62.2986 47.6601 63.3245 45.5541C64.4045 43.3942 64.9445 40.3972 64.9445 36.5632V24.8183C64.9445 23.2523 64.3775 21.9294 63.2435 20.8494C62.1096 19.7154 60.5706 19.1484 58.6266 19.1484H39.5918C37.6478 19.1484 36.0818 19.6614 34.8938 20.6874C33.7058 21.7134 33.1118 23.0903 33.1118 24.8183V45.4731C33.1118 47.3091 33.6788 48.7401 34.8128 49.7661C36.0008 50.7381 37.5938 51.2241 39.5918 51.2241ZM100.233 59L82.8181 11.4535H94.158L105.579 42.5572L107.442 50.4141H108.252L109.305 44.9061L120.078 11.4535H133.848L145.107 44.9061L146.565 50.4141H147.375L149.237 42.5572L159.848 11.4535H171.188L170.378 16.3134L153.692 59H139.923L128.907 27.1673L127.287 21.9834H126.477L124.938 27.1673L114.003 59H100.233ZM196.406 59V39.2362L172.835 11.3725H185.795L197.783 26.5193L201.509 31.5413H202.319L206.045 26.5193L218.032 11.3725H230.992L227.833 16.2324L207.098 39.5602V59H196.406ZM289.091 59.81C286.446 59.81 284.151 59.27 282.207 58.19C280.263 57.11 278.346 55.652 276.456 53.8161C274.404 51.6561 271.92 49.1721 269.004 46.3641C267.654 44.9601 266.277 43.7991 264.873 42.8812C263.469 41.9632 261.876 41.2612 260.094 40.7752C258.366 40.2892 256.206 40.0462 253.614 40.0462H249.807V59H239.115V17.8524L238.305 11.3725H249.807V32.1083H254.343C255.423 32.1083 256.314 31.9733 257.016 31.7033C257.718 31.4333 258.366 31.0013 258.96 30.4073C260.472 28.8953 262.2 27.0053 264.144 24.7373C266.088 22.4694 267.978 20.1474 269.814 17.7714C271.704 15.3414 273.324 13.2084 274.674 11.3725H287.795L284.475 16.2324C282.963 17.7984 281.343 19.4994 279.615 21.3354C277.887 23.1713 276.186 24.9803 274.512 26.7623C272.838 28.4903 271.326 30.0293 269.976 31.3793C268.626 32.6753 267.627 33.6202 266.979 34.2142C268.437 34.7002 269.76 35.3212 270.948 36.0772C272.19 36.8332 273.702 37.9402 275.484 39.3982C276.834 40.4782 278.13 41.5852 279.372 42.7192C280.668 43.8531 282.153 45.2031 283.827 46.7691C285.717 48.4971 287.498 49.7661 289.172 50.5761C290.846 51.3861 292.25 51.8991 293.384 52.1151C294.572 52.3311 295.328 52.4391 295.652 52.4391L294.032 59C293.87 59.162 293.384 59.324 292.574 59.486C291.764 59.702 290.603 59.81 289.091 59.81Z" fill="#323232"/>
</svg>
