<svg width="49" height="48" viewBox="0 0 49 48" fill="none" xmlns="http://www.w3.org/2000/svg">
<g clip-path="url(#clip0_2382_6696)">
<path d="M33.7493 5.75757H5.10415C2.54253 5.75757 0.458984 7.84112 0.458984 10.4027V27.0479C0.458984 29.6095 2.54253 31.6931 5.10415 31.6931H9.27318L9.36221 35.8872C9.3894 37.1455 10.834 37.8503 11.8425 37.0911C19.4669 31.3429 18.3865 32.1574 19.0029 31.6931H33.7493C36.3109 31.6931 38.3945 29.6095 38.3945 27.0479V10.4027C38.3945 7.84112 36.3109 5.75757 33.7493 5.75757ZM24.7493 24.2414H14.1041C13.2487 24.2414 12.5558 23.5485 12.5558 22.6931C12.5558 21.8376 13.2487 21.1447 14.1041 21.1447H24.7493C25.6048 21.1447 26.2977 21.8376 26.2977 22.6931C26.2977 23.5485 25.6048 24.2414 24.7493 24.2414ZM27.5558 17.4672H11.2977C10.4422 17.4672 9.74931 16.7743 9.74931 15.9189C9.74931 15.0634 10.4422 14.3705 11.2977 14.3705H27.5558C28.4112 14.3705 29.1041 15.0634 29.1041 15.9189C29.1041 16.7743 28.4112 17.4672 27.5558 17.4672Z" fill="#9159D8"/>
<path d="M48.4594 20.0802V32.8544C48.4594 35.4199 46.3797 37.4996 43.8143 37.4996H39.6385L39.5562 40.7328C39.5342 41.5738 38.8437 42.2415 38.0078 42.2415C37.396 42.2415 37.843 42.4166 29.9891 37.4996H23.2014C22.0172 37.4996 20.9355 37.0542 20.1146 36.3223C19.0513 35.3743 19.7181 33.6152 21.1426 33.6152H35.23C38.234 33.6152 40.6691 31.18 40.6691 28.1761V16.9834C40.6691 16.1283 41.3623 15.4351 42.2175 15.4351H43.8143C46.3797 15.4351 48.4594 17.5147 48.4594 20.0802Z" fill="#D3BDEF"/>
</g>
<defs>
<clipPath id="clip0_2382_6696">
<rect width="48" height="48" fill="white" transform="translate(0.458984)"/>
</clipPath>
</defs>
</svg>
