<svg width="30" height="30" viewBox="0 0 30 30" fill="none" xmlns="http://www.w3.org/2000/svg">
<path d="M0 8C0 3.58172 3.58172 0 8 0H22C26.4183 0 30 3.58172 30 8V22C30 26.4183 26.4183 30 22 30H8C3.58172 30 0 26.4183 0 22V8Z" fill="#4691FF" fill-opacity="0.1"/>
<rect width="18" height="18" transform="translate(6 6)" fill="white" fill-opacity="0.01" style="mix-blend-mode:multiply"/>
<path d="M20.0625 18.9375H16.6875C16.2399 18.9375 15.8107 19.1153 15.4943 19.4318C15.1778 19.7482 15 20.1774 15 20.625V21.75H16.125V20.625C16.125 20.4758 16.1843 20.3327 16.2898 20.2273C16.3952 20.1218 16.5383 20.0625 16.6875 20.0625H20.0625C20.2117 20.0625 20.3548 20.1218 20.4602 20.2273C20.5657 20.3327 20.625 20.4758 20.625 20.625V21.75H21.75V20.625C21.75 20.1774 21.5722 19.7482 21.2557 19.4318C20.9393 19.1153 20.5101 18.9375 20.0625 18.9375Z" fill="#4691FF"/>
<path d="M16.125 16.125C16.125 16.57 16.257 17.005 16.5042 17.375C16.7514 17.745 17.1028 18.0334 17.514 18.2037C17.9251 18.374 18.3775 18.4186 18.814 18.3318C19.2504 18.245 19.6513 18.0307 19.966 17.716C20.2807 17.4013 20.495 17.0004 20.5818 16.564C20.6686 16.1275 20.624 15.6751 20.4537 15.264C20.2834 14.8528 19.995 14.5014 19.625 14.2542C19.255 14.007 18.82 13.875 18.375 13.875C17.7783 13.875 17.206 14.1121 16.784 14.534C16.3621 14.956 16.125 15.5283 16.125 16.125ZM19.5 16.125C19.5 16.3475 19.434 16.565 19.3104 16.75C19.1868 16.935 19.0111 17.0792 18.8055 17.1644C18.6 17.2495 18.3738 17.2718 18.1555 17.2284C17.9373 17.185 17.7368 17.0778 17.5795 16.9205C17.4222 16.7632 17.315 16.5627 17.2716 16.3445C17.2282 16.1262 17.2505 15.9 17.3356 15.6945C17.4208 15.4889 17.565 15.3132 17.75 15.1896C17.935 15.066 18.1525 15 18.375 15C18.6734 15 18.9595 15.1185 19.1705 15.3295C19.3815 15.5405 19.5 15.8266 19.5 16.125Z" fill="#4691FF"/>
<path d="M11.625 16.4569L10.1681 15L9.375 15.7931L11.625 18.0431L15.5625 14.1056L14.7694 13.3125L11.625 16.4569Z" fill="#4691FF"/>
<path d="M13.875 20.625H8.25V9.375H12.284L14.534 11.625H21.75V16.125H22.875V11.625C22.875 11.3266 22.7565 11.0405 22.5455 10.8295C22.3345 10.6185 22.0484 10.5 21.75 10.5H15L13.0796 8.57951C12.9751 8.47504 12.8511 8.39217 12.7146 8.33563C12.5781 8.27909 12.4318 8.24999 12.284 8.25H8.25C7.95163 8.25 7.66548 8.36853 7.4545 8.5795C7.24353 8.79048 7.125 9.07663 7.125 9.375V20.625C7.125 20.9234 7.24353 21.2095 7.4545 21.4205C7.66548 21.6315 7.95163 21.75 8.25 21.75H13.875V20.625Z" fill="#4691FF"/>
</svg>
