<svg width="30" height="30" viewBox="0 0 30 30" fill="none" xmlns="http://www.w3.org/2000/svg">
<path d="M0 8C0 3.58172 3.58172 0 8 0H22C26.4183 0 30 3.58172 30 8V22C30 26.4183 26.4183 30 22 30H8C3.58172 30 0 26.4183 0 22V8Z" fill="#F9EFDE"/>
<rect width="18" height="18" transform="translate(6 6)" fill="white" fill-opacity="0.01" style="mix-blend-mode:multiply"/>
<path d="M22.7102 16.8523L21.0227 15.1648C20.9705 15.1126 20.9085 15.0711 20.8402 15.0428C20.772 15.0145 20.6989 15 20.625 15C20.5511 15 20.478 15.0145 20.4098 15.0428C20.3415 15.0711 20.2795 15.1126 20.2273 15.1648L15 20.3921V22.875H17.4829L22.7102 17.6477C22.7624 17.5955 22.8039 17.5335 22.8322 17.4652C22.8605 17.397 22.875 17.3239 22.875 17.25C22.875 17.1761 22.8605 17.103 22.8322 17.0348C22.8039 16.9665 22.7624 16.9045 22.7102 16.8523ZM17.0171 21.75H16.125V20.8579L18.9375 18.0454L19.8296 18.9375L17.0171 21.75ZM20.625 18.1421L19.7329 17.25L20.625 16.3579L21.5171 17.25L20.625 18.1421Z" fill="#F29900"/>
<path d="M22.875 8.25H18.9375V9.375H20.9546L16.6875 13.6421L14.2727 11.2273C14.1672 11.1219 14.0242 11.0626 13.875 11.0626C13.7258 11.0626 13.5828 11.1219 13.4773 11.2273L9.375 15.3296L10.1704 16.125L13.875 12.4204L16.2898 14.8352C16.3953 14.9406 16.5383 14.9999 16.6875 14.9999C16.8367 14.9999 16.9797 14.9406 17.0852 14.8352L21.75 10.1704V12.1875H22.875V8.25Z" fill="#F29900"/>
<path d="M8.25 7.125H7.125V21.75C7.125 22.0484 7.24353 22.3345 7.4545 22.5455C7.66548 22.7565 7.95163 22.875 8.25 22.875H12.75V21.75H8.25V7.125Z" fill="#F29900"/>
</svg>
