<svg width="49" height="48" viewBox="0 0 49 48" fill="none" xmlns="http://www.w3.org/2000/svg">
<path opacity="0.4" d="M41.2227 20.3797H35.4427C30.7027 20.3797 26.8427 16.5197 26.8427 11.7797V5.99971C26.8427 4.89971 25.9427 3.99971 24.8427 3.99971H16.3627C10.2027 3.99971 5.22266 7.99971 5.22266 15.1397V32.8597C5.22266 39.9997 10.2027 43.9997 16.3627 43.9997H32.0827C38.2427 43.9997 43.2227 39.9997 43.2227 32.8597V22.3797C43.2227 21.2797 42.3227 20.3797 41.2227 20.3797Z" fill="#F29900"/>
<path d="M31.8259 4.42028C31.0059 3.60028 29.5859 4.16028 29.5859 5.30028V12.2803C29.5859 15.2003 32.0659 17.6203 35.0859 17.6203C36.9859 17.6403 39.6259 17.6403 41.8859 17.6403C43.0259 17.6403 43.6259 16.3003 42.8259 15.5003C39.9459 12.6003 34.7859 7.38028 31.8259 4.42028Z" fill="#F29900"/>
<path d="M27.2285 27.5003H15.2285C14.4085 27.5003 13.7285 26.8203 13.7285 26.0003C13.7285 25.1803 14.4085 24.5003 15.2285 24.5003H27.2285C28.0485 24.5003 28.7285 25.1803 28.7285 26.0003C28.7285 26.8203 28.0485 27.5003 27.2285 27.5003Z" fill="#F29900"/>
<path d="M23.2285 35.4997H15.2285C14.4085 35.4997 13.7285 34.8197 13.7285 33.9997C13.7285 33.1797 14.4085 32.4997 15.2285 32.4997H23.2285C24.0485 32.4997 24.7285 33.1797 24.7285 33.9997C24.7285 34.8197 24.0485 35.4997 23.2285 35.4997Z" fill="#F29900"/>
</svg>
