<svg width="961" height="1080" viewBox="0 0 961 1080" fill="none" xmlns="http://www.w3.org/2000/svg">
<path d="M0 0V1080.01" stroke="#514F46" stroke-opacity="0.11"/>
<path d="M40 0V1080.01" stroke="#514F46" stroke-opacity="0.11"/>
<path d="M80 0V1080.01" stroke="#514F46" stroke-opacity="0.11"/>
<path d="M120 0V1080.01" stroke="#514F46" stroke-opacity="0.11"/>
<path d="M160 0V1080.01" stroke="#514F46" stroke-opacity="0.11"/>
<path d="M200 0V1080.01" stroke="#514F46" stroke-opacity="0.11"/>
<path d="M240 0V1080.01" stroke="#514F46" stroke-opacity="0.11"/>
<path d="M280 0V1080.01" stroke="#514F46" stroke-opacity="0.11"/>
<path d="M320 0V1080.01" stroke="#514F46" stroke-opacity="0.11"/>
<path d="M360 0V1080.01" stroke="#514F46" stroke-opacity="0.11"/>
<path d="M400 0V1080.01" stroke="#514F46" stroke-opacity="0.11"/>
<path d="M440 0V1080.01" stroke="#514F46" stroke-opacity="0.11"/>
<path d="M480 0V1080.01" stroke="#514F46" stroke-opacity="0.11"/>
<path d="M520 0V1080.01" stroke="#514F46" stroke-opacity="0.11"/>
<path d="M560 0V1080.01" stroke="#514F46" stroke-opacity="0.11"/>
<path d="M600 0V1080.01" stroke="#514F46" stroke-opacity="0.11"/>
<path d="M640 0V1080.01" stroke="#514F46" stroke-opacity="0.11"/>
<path d="M680 0V1080.01" stroke="#514F46" stroke-opacity="0.11"/>
<path d="M720 0V1080.01" stroke="#514F46" stroke-opacity="0.11"/>
<path d="M760 0V1080.01" stroke="#514F46" stroke-opacity="0.11"/>
<path d="M800 0V1080.01" stroke="#514F46" stroke-opacity="0.11"/>
<path d="M840 0V1080.01" stroke="#514F46" stroke-opacity="0.11"/>
<path d="M880 0V1080.01" stroke="#514F46" stroke-opacity="0.11"/>
<path d="M920 0V1080.01" stroke="#514F46" stroke-opacity="0.11"/>
<path d="M960 0V1080.01" stroke="#514F46" stroke-opacity="0.11"/>
<path d="M959.5 0L-1.09673e-05 -0.000103105" stroke="#514F46" stroke-opacity="0.11"/>
<path d="M959.5 40L-1.09673e-05 39.9999" stroke="#514F46" stroke-opacity="0.11"/>
<path d="M959.5 80L-1.09673e-05 79.9999" stroke="#514F46" stroke-opacity="0.11"/>
<path d="M959.5 120L-1.09673e-05 120" stroke="#514F46" stroke-opacity="0.11"/>
<path d="M959.5 160L-1.09673e-05 160" stroke="#514F46" stroke-opacity="0.11"/>
<path d="M959.5 200L-1.09673e-05 200" stroke="#514F46" stroke-opacity="0.11"/>
<path d="M959.5 240L-1.09673e-05 240" stroke="#514F46" stroke-opacity="0.11"/>
<path d="M959.5 280L-1.09673e-05 280" stroke="#514F46" stroke-opacity="0.11"/>
<path d="M959.5 320L-1.09673e-05 320" stroke="#514F46" stroke-opacity="0.11"/>
<path d="M959.5 360L-1.09673e-05 360" stroke="#514F46" stroke-opacity="0.11"/>
<path d="M959.5 400L-1.09673e-05 400" stroke="#514F46" stroke-opacity="0.11"/>
<path d="M959.5 440L-1.09673e-05 440" stroke="#514F46" stroke-opacity="0.11"/>
<path d="M959.5 480L-1.09673e-05 480" stroke="#514F46" stroke-opacity="0.11"/>
<path d="M959.5 520L-1.09673e-05 520" stroke="#514F46" stroke-opacity="0.11"/>
<path d="M959.5 560L-1.09673e-05 560" stroke="#514F46" stroke-opacity="0.11"/>
<path d="M959.5 600L-1.09673e-05 600" stroke="#514F46" stroke-opacity="0.11"/>
<path d="M959.5 640L-1.09673e-05 640" stroke="#514F46" stroke-opacity="0.11"/>
<path d="M959.5 680L-1.09673e-05 680" stroke="#514F46" stroke-opacity="0.11"/>
<path d="M959.5 720L-1.09673e-05 720" stroke="#514F46" stroke-opacity="0.11"/>
<path d="M959.5 760L-1.09673e-05 760" stroke="#514F46" stroke-opacity="0.11"/>
<path d="M959.5 800L-1.09673e-05 800" stroke="#514F46" stroke-opacity="0.11"/>
<path d="M959.5 840L-1.09673e-05 840" stroke="#514F46" stroke-opacity="0.11"/>
<path d="M959.5 880L-1.09673e-05 880" stroke="#514F46" stroke-opacity="0.11"/>
<path d="M959.5 920L-1.09673e-05 920" stroke="#514F46" stroke-opacity="0.11"/>
<path d="M959.5 960L-1.09673e-05 960" stroke="#514F46" stroke-opacity="0.11"/>
<path d="M959.5 1000L-1.09673e-05 1000" stroke="#514F46" stroke-opacity="0.11"/>
<path d="M959.5 1040L-1.09673e-05 1040" stroke="#514F46" stroke-opacity="0.11"/>
<path d="M959.5 1080L-1.09673e-05 1080" stroke="#514F46" stroke-opacity="0.11"/>
</svg>
