<svg width="48" height="48" viewBox="0 0 48 48" fill="none" xmlns="http://www.w3.org/2000/svg">
<path opacity="0.4" d="M18.0039 3.99918C12.7639 3.99918 8.50391 8.25918 8.50391 13.4992C8.50391 18.6392 12.5239 22.7992 17.7639 22.9792C17.9239 22.9592 18.0839 22.9592 18.2039 22.9792C18.2439 22.9792 18.2639 22.9792 18.3039 22.9792C18.3239 22.9792 18.3239 22.9792 18.3439 22.9792C23.4639 22.7992 27.4839 18.6392 27.5039 13.4992C27.5039 8.25918 23.2439 3.99918 18.0039 3.99918Z" fill="#4691FF"/>
<path d="M28.1619 28.3001C22.5819 24.5801 13.4819 24.5801 7.86187 28.3001C5.32187 30.0001 3.92188 32.3001 3.92188 34.7601C3.92188 37.2201 5.32187 39.5001 7.84187 41.1801C10.6419 43.0601 14.3219 44.0001 18.0019 44.0001C21.6819 44.0001 25.3619 43.0601 28.1619 41.1801C30.6819 39.4801 32.0819 37.2001 32.0819 34.7201C32.0619 32.2601 30.6819 29.9801 28.1619 28.3001Z" fill="#4691FF"/>
<path opacity="0.4" d="M39.9787 14.6804C40.2987 18.5604 37.5388 21.9604 33.7188 22.4204C33.6988 22.4204 33.6988 22.4204 33.6788 22.4204H33.6187C33.4987 22.4204 33.3787 22.4204 33.2787 22.4604C31.3387 22.5604 29.5587 21.9404 28.2188 20.8004C30.2787 18.9604 31.4587 16.2004 31.2187 13.2004C31.0787 11.5804 30.5188 10.1004 29.6788 8.84041C30.4388 8.46041 31.3188 8.22041 32.2188 8.14041C36.1388 7.80041 39.6387 10.7204 39.9787 14.6804Z" fill="#4691FF"/>
<path d="M43.9688 33.1787C43.8088 35.1187 42.5688 36.7987 40.4888 37.9387C38.4888 39.0387 35.9688 39.5587 33.4688 39.4987C34.9088 38.1987 35.7487 36.5787 35.9087 34.8587C36.1087 32.3787 34.9288 29.9987 32.5688 28.0987C31.2288 27.0387 29.6688 26.1987 27.9688 25.5787C32.3888 24.2987 37.9488 25.1587 41.3688 27.9187C43.2088 29.3987 44.1488 31.2587 43.9688 33.1787Z" fill="#4691FF"/>
</svg>
