<svg width="30" height="29" viewBox="0 0 30 29" fill="none" xmlns="http://www.w3.org/2000/svg">
<rect x="0.5" width="29" height="29" rx="11" fill="#57BF57"/>
<path d="M15 5.75024C10.1787 5.75024 6.25 9.67899 6.25 14.5002C6.25 19.3215 10.1787 23.2502 15 23.2502C19.8212 23.2502 23.75 19.3215 23.75 14.5002C23.75 9.67899 19.8212 5.75024 15 5.75024ZM19.1825 12.4877L14.2212 17.449C14.0987 17.5715 13.9325 17.6415 13.7575 17.6415C13.5825 17.6415 13.4162 17.5715 13.2937 17.449L10.8175 14.9727C10.5637 14.719 10.5637 14.299 10.8175 14.0452C11.0712 13.7915 11.4912 13.7915 11.745 14.0452L13.7575 16.0577L18.255 11.5602C18.5087 11.3065 18.9287 11.3065 19.1825 11.5602C19.4362 11.814 19.4362 12.2252 19.1825 12.4877Z" fill="white"/>
</svg>
