<svg width="49" height="48" viewBox="0 0 49 48" fill="none" xmlns="http://www.w3.org/2000/svg">
<path opacity="0.4" d="M34.0605 4.36536H12.8805C8.24047 4.36536 4.48047 8.46904 4.48047 13.5113V27.0011V27.4159C4.48047 32.48 8.24047 36.5618 12.8605 36.5618H20.0605C21.1605 36.5618 22.0605 37.5441 22.0605 38.7446V40.5345C22.0605 41.7351 21.1605 42.7174 20.0605 42.7174H15.5605C14.7805 42.7174 14.1405 43.4159 14.1405 44.2672C14.1405 45.1185 14.7805 45.817 15.5605 45.817H31.4205C32.2005 45.817 32.8405 45.1185 32.8405 44.2672C32.8405 43.4159 32.2005 42.7174 31.4205 42.7174H26.9205C25.8205 42.7174 24.9205 41.7351 24.9205 40.5345V38.7446C24.9205 37.5441 25.8205 36.5618 26.9205 36.5618H34.0605C38.7005 36.5618 42.4405 32.4581 42.4405 27.4159V27.0011V13.5113C42.4405 8.46904 38.6805 4.36536 34.0605 4.36536Z" fill="#EC4747"/>
<path d="M36.9629 22.9335H27.9436C24.994 22.9335 23.9199 24.0902 23.9199 27.3035V41.4968C23.9199 44.7284 24.977 45.8668 27.9436 45.8668H36.9629C39.9125 45.8668 40.9866 44.71 40.9866 41.4968V27.3035C40.9866 24.0719 39.9295 22.9335 36.9629 22.9335ZM32.4618 42.8005C31.4218 42.8005 30.5863 41.9007 30.5863 40.7807C30.5863 39.6607 31.4218 38.761 32.4618 38.761C33.5018 38.761 34.3372 39.6607 34.3372 40.7807C34.3372 41.9007 33.5018 42.8005 32.4618 42.8005Z" fill="#EC4747"/>
<path opacity="0.4" d="M35.134 40.7998C35.134 42.1307 34.0649 43.1998 32.734 43.1998C31.4031 43.1998 30.334 42.1307 30.334 40.7998C30.334 39.4689 31.4031 38.3998 32.734 38.3998C34.0649 38.3998 35.134 39.4907 35.134 40.7998Z" fill="#EC4747"/>
</svg>
